<svg xmlns="http://www.w3.org/2000/svg" xmlns:xlink="http://www.w3.org/1999/xlink" width="200" height="200" viewBox="0 0 200 200">
  <defs>
    <path id="形状-c" d="M85.7954545,1.13636367 C41.25,8.06818184 8.06818184,41.7045455 1.13636367,86.9318182 C-5.34090898,129.659091 21.5909092,176.022727 62.5,192.727273 C77.9545455,198.977273 108.75,200.568182 125.568182,195.909091 C153.977273,188.181818 178.295454,167.840909 190.454546,141.477273 C197.159091,126.931818 199.204546,117.5 199.204546,100 C199.204546,81.8181818 197.045455,72.1590908 189.318182,56.25 C173.409091,23.2954545 141.25,2.38636367 103.977273,0.681818164 C97.7272727,0.34090918 89.5454545,0.568181836 85.7954545,1.13636367 Z M82.2954545,57.9545455 C79.9090908,68.8636357 79.4545453,68.1818182 89.5681818,68.1818182 C99.7954545,68.1818182 98.7727273,69.090909 101.045454,56.4772727 L102.409091,48.8636357 L108.090909,48.8636357 C112.181818,48.8636357 113.659091,49.3181818 113.204546,50.2272727 C112.977273,51.0227271 110.704546,62.2727271 108.318182,75.2272727 L103.886364,98.8636357 L98.5454545,98.8636357 C95.4772727,98.8636357 93.090909,98.6363637 93.0909092,98.4090908 C93.0909094,98.181818 93.8863637,93.8636357 94.7954545,88.9772727 C95.7045453,84.090909 96.5,79.7727271 96.5,79.2045455 C96.5,78.75 92.4090908,78.409091 87.5227273,78.4090908 C77.2954547,78.4090908 78.7727273,76.7045453 75.9318182,91.7045455 L74.5681818,98.8636357 L69,98.8636357 C64.9090908,98.8636357 63.4318182,98.4090908 63.7727273,97.3863637 C64.1136365,96.7045455 66.3863637,85.4545455 68.7727273,72.5 C71.0920077,61.8142215 72.7344259,55.3341469 73.6999817,53.0597763 C74.6655375,50.7854057 76.3185739,49.3866921 78.6590908,48.8636357 C81.6136363,48.8636357 84,49.2045455 84,49.6590908 C83.8863637,50.2272727 83.2045455,53.8636357 82.2954545,57.9545455 Z M138.778319,37.7454221 C138.756185,38.3219499 139.608743,43.9356336 141.335994,54.5864733 L137.835067,55.9303531 C134.864584,57.0706148 134.171246,56.8498781 133.397497,54.8341932 C132.379406,52.181976 128.029125,44.3060717 127.851184,41.939956 C127.884385,41.0751644 129.802541,39.7302484 133.303467,38.3863686 C137.228749,36.8795942 138.770796,36.7745418 138.778319,37.7454221 Z M127.522727,82.0454545 L124.340909,98.8636363 L119,98.8636363 C115.931818,98.8636363 113.545454,98.6363637 113.545454,98.5227273 C113.545454,98.2954547 115.022727,90.2272729 116.954546,80.5681818 C118.772727,70.909091 118.517023,70.3717401 120.057816,67.1052589 C121.598609,63.8387777 122.636364,62.4999627 125.477273,62.4999627 C128.772727,62.4999627 130.590909,62.9545455 130.590909,63.8636363 C130.590909,64.6590908 129.227273,72.840909 127.522727,82.0454545 Z M78.9772727,130.568182 C94.7727271,133.522727 105.227273,133.522727 121.022727,130.568182 C139.545455,127.272727 146.25,126.704546 148.295454,128.409091 C150.681818,130.340909 150.454545,134.431818 147.727273,139.772727 C138.522727,157.727273 112.386363,169.772727 90.7954545,165.909091 C71.25,162.386363 50,145.227273 50,132.840909 C50,126.363637 54.0909092,126.022727 78.9772727,130.568182 L78.9772727,130.568182 Z"/>
    <filter id="形状-a" width="107.5%" height="107.6%" x="-3.8%" y="-2.8%" filterUnits="objectBoundingBox">
      <feGaussianBlur in="SourceGraphic" stdDeviation="1"/>
    </filter>
    <filter id="形状-b" width="110.6%" height="110.6%" x="-5.3%" y="-4.3%" filterUnits="objectBoundingBox">
      <feMorphology in="SourceAlpha" operator="dilate" radius=".5" result="shadowSpreadOuter1"/>
      <feOffset dy="2" in="shadowSpreadOuter1" result="shadowOffsetOuter1"/>
      <feGaussianBlur in="shadowOffsetOuter1" result="shadowBlurOuter1" stdDeviation="2"/>
      <feComposite in="shadowBlurOuter1" in2="SourceAlpha" operator="out" result="shadowBlurOuter1"/>
      <feColorMatrix in="shadowBlurOuter1" values="0 0 0 0 0   0 0 0 0 0   0 0 0 0 0  0 0 0 0.5 0"/>
    </filter>
    <filter id="形状-d" width="109.5%" height="109.6%" x="-4.8%" y="-3.8%" filterUnits="objectBoundingBox">
      <feGaussianBlur in="SourceAlpha" result="shadowBlurInner1" stdDeviation="1.5"/>
      <feOffset dy="1" in="shadowBlurInner1" result="shadowOffsetInner1"/>
      <feComposite in="shadowOffsetInner1" in2="SourceAlpha" k2="-1" k3="1" operator="arithmetic" result="shadowInnerInner1"/>
      <feColorMatrix in="shadowInnerInner1" values="0 0 0 0 0   0 0 0 0 0   0 0 0 0 0  0 0 0 0.5 0"/>
    </filter>
  </defs>
  <g fill="none" filter="url(#形状-a)">
    <use fill="#000" filter="url(#形状-b)" xlink:href="#形状-c"/>
    <use fill="#FFF" xlink:href="#形状-c"/>
    <use fill="#000" filter="url(#形状-d)" xlink:href="#形状-c"/>
    <use stroke="#979797" xlink:href="#形状-c"/>
  </g>
</svg>
